:SAMPLES-PER-SECOND 30
:FULLY-SPECIFIED
:DEGREES
680
root  -8.49933 38.2591 26.8891 -168.146 -83.1254 162.557
RightUpLeg  -17.4345 -4.35131 -11.6059
RightLeg  19.6234 3.32457 1.13212
RightFoot  3.41072 -0.829221 6.57076
RightToes  1.33877e-009 0 -3.6325e-017
Spine  12.1109 -4.03806 -0.123594
Spine1  7.58526 -4.97688 2.49692
HEad  -18.257 2.32143 -5.75631
LeftShoulder1  0.284967 2.67646 -28.292
LeftArm  24.0055 -34.1132 -67.4867
LeftForeArm  11.5682 -21.6231 -4.79129
LeftHand  0.00168463 6.0382 5.273
RightShoulder  -0.46564 -4.85669 27.5338
RightArm  5.38273 -1.80256 39.2009
RightForeArm  3.49979 1.29341 3.98259
RightHand  -0.23775 1.80067 -4.00854
LeftUpLeg  13.7561 3.24492 8.42882
LeftLeg  16.935 -10.6085 -2.88899
LeftFoot  -21.6923 -0.578657 -7.80147
LeftToes  -1.45701e-009 4.75788e-011 -4.21586e-011
681
root  -7.41885 38.2696 27.6573 -164.077 -81.7789 159.835
RightUpLeg  -18.9479 -3.5511 -12.6926
RightLeg  14.9173 3.79391 0.374775
RightFoot  7.33857 -1.20211 7.59998
RightToes  1.33877e-009 0 -3.6325e-017
Spine  12.2956 -3.67223 -1.51196
Spine1  6.89482 -4.61792 2.23033
HEad  -17.7476 2.43037 -5.1217
LeftShoulder1  0.317378 2.59612 -28.8291
LeftArm  22.6891 -31.9634 -65.0069
LeftForeArm  10.5877 -19.5311 -5.94562
LeftHand  -0.00306407 5.7502 6.3057
RightShoulder  -0.435949 -4.77221 27.4351
RightArm  3.92162 -2.38988 39.3778
RightForeArm  3.49271 2.26926 3.38779
RightHand  -0.274723 1.73567 -4.64023
LeftUpLeg  11.1518 3.72103 5.25424
LeftLeg  15.904 -6.72332 -0.981362
LeftFoot  -22.6024 -0.355854 -4.9562
LeftToes  -1.45701e-009 4.75788e-011 -4.21586e-011
682
root  -6.41635 38.3827 28.3225 -164.174 -79.8947 161.724
RightUpLeg  -20.1947 -5.47031 -11.5372
RightLeg  8.85327 8.35249 -1.23044
RightFoot  9.0889 -1.39992 8.05682
RightToes  1.33877e-009 0 -3.6325e-017
Spine  11.6799 -3.19091 -2.36029
Spine1  6.8174 -4.0546 1.85929
HEad  -17.5121 2.96915 -4.95949
LeftShoulder1  0.276185 2.73126 -29.7134
LeftArm  19.8756 -28.9435 -61.6534
LeftForeArm  11.1056 -17.5375 -7.25446
LeftHand  0.0264959 6.2341 7.14166
RightShoulder  -0.418005 -4.74372 26.7733
RightArm  2.47185 -3.41723 40.6839
RightForeArm  3.44954 4.55907 2.91252
RightHand  -0.32276 1.99192 -5.24997
LeftUpLeg  7.30517 3.86286 3.32012
LeftLeg  16.7613 -4.45354 -0.524485
LeftFoot  -22.4416 -0.322414 -4.70071
LeftToes  -1.45701e-009 4.75788e-011 -4.21586e-011
683
root  -5.54503 38.5667 28.8741 -165.338 -76.5305 163.996
RightUpLeg  -21.3329 -8.24286 -9.66006
RightLeg  4.50396 14.9659 -1.59835
RightFoot  5.13605 -1.1997 8.70217
RightToes  1.33877e-009 0 -3.6325e-017
Spine  11.5687 -2.39474 -2.74703
Spine1  6.87568 -2.87532 0.650025
HEad  -16.6523 2.64476 -5.32393
LeftShoulder1  0.184787 3.00488 -30.7962
LeftArm  14.5816 -24.8348 -56.8544
LeftForeArm  14.6671 -15.1658 -8.50684
LeftHand  -0.0342781 5.16634 6.88339
RightShoulder  -0.462903 -4.87028 26.9609
RightArm  1.63165 -4.4415 42.0682
RightForeArm  2.91765 7.31174 2.77387
RightHand  -0.378878 2.94336 -5.50799
LeftUpLeg  5.00639 6.48638 2.25323
LeftLeg  16.6699 -3.72151 -0.777584
LeftFoot  -21.2532 -0.267627 -4.55101
LeftToes  -1.45701e-009 4.75788e-011 -4.21586e-011
684
root  -4.85882 38.7193 29.2938 -168.676 -73.2489 168.265
RightUpLeg  -21.7417 -9.1133 -8.10377
RightLeg  2.66844 14.4247 -0.0392347
RightFoot  2.14658 -1.62705 13.7056
RightToes  1.33877e-009 0 -3.6325e-017
Spine  11.1909 -2.20926 -1.26657
Spine1  7.01415 -1.70167 -2.61375
HEad  -16.7675 3.55815 -5.9534
LeftShoulder1  0.157116 3.08013 -31.435
LeftArm  8.26046 -19.5123 -51.4475
LeftForeArm  17.164 -12.4659 -9.53938
LeftHand  -0.000687757 5.86266 5.99452
RightShoulder  -0.59339 -5.23748 27.5002
RightArm  2.1112 -4.99814 43.7659
RightForeArm  2.84658 10.1332 3.13269
RightHand  -0.367554 3.3162 -5.13984
LeftUpLeg  3.14437 7.29619 1.54571
LeftLeg  16.7353 -0.92865 -0.023086
LeftFoot  -20.2344 -0.212478 -4.2978
LeftToes  -1.45701e-009 4.75788e-011 -4.21586e-011
685
root  -4.26465 38.9316 29.652 -172.974 -69.9819 172.933
RightUpLeg  -22.1389 -8.41502 -6.29702
RightLeg  5.08859 11.2062 1.35392
RightFoot  2.52638 -1.69462 14.0136
RightToes  1.33877e-009 0 -3.6325e-017
Spine  11.6192 -2.22389 -0.464289
Spine1  6.79374 -1.33683 -3.88671
HEad  -17.1573 5.8254 -7.17447
LeftShoulder1  -0.0234255 3.5658 -33.0488
LeftArm  1.96575 -13.4324 -45.4242
LeftForeArm  19.4535 -8.96844 -10.1539
LeftHand  0.0865983 8.01938 5.361
RightShoulder  -0.55872 -5.15631 27.011
RightArm  3.55208 -5.01547 45.9279
RightForeArm  4.29929 12.5849 3.5973
RightHand  -0.331241 2.99305 -4.81075
LeftUpLeg  2.65923 8.37636 1.89314
LeftLeg  15.7742 1.54388 0.435832
LeftFoot  -18.9316 -0.174826 -4.33526
LeftToes  -1.45701e-009 4.75788e-011 -4.21586e-011
686
root  -3.74463 39.0945 29.8703 -174.629 -67.6696 174.724
RightUpLeg  -23.0097 -8.341 -5.28429
RightLeg  11.1674 8.35414 1.93112
RightFoot  2.29425 -1.49618 12.5979
RightToes  1.33877e-009 0 -3.6325e-017
Spine  11.8435 -2.47635 -1.50481
Spine1  6.87733 -1.79631 -3.54945
HEad  -17.5961 7.80862 -7.54499
LeftShoulder1  0.0382809 3.40548 -33.1055
LeftArm  -3.52928 -6.04303 -41.5083
LeftForeArm  20.8457 -4.387 -9.43897
LeftHand  0.0620383 7.66058 4.88741
RightShoulder  -0.467161 -4.91137 26.3329
RightArm  5.92673 -5.12271 47.9007
RightForeArm  6.22855 15.514 3.97516
RightHand  -0.281347 2.4159 -4.39266
LeftUpLeg  2.50217 8.82006 2.08866
LeftLeg  14.6722 3.42738 0.556388
LeftFoot  -17.8214 -0.125802 -4.11356
LeftToes  -1.45701e-009 4.75788e-011 -4.21586e-011
687
root  -3.31299 39.1529 29.9985 -175.652 -66.1836 175.822
RightUpLeg  -24.1602 -8.2782 -5.01154
RightLeg  19.2908 5.57734 1.94242
RightFoot  1.93005 -1.38681 12.0054
RightToes  1.33877e-009 0 -3.6325e-017
Spine  11.8774 -2.67827 -2.806
Spine1  6.87518 -2.37993 -2.714
HEad  -16.9797 8.6326 -7.55965
LeftShoulder1  -0.0295224 3.57821 -33.6767
LeftArm  -4.88292 0.0227927 -38.5496
LeftForeArm  21.7475 0.693837 -8.28765
LeftHand  0.077438 8.63671 4.33367
RightShoulder  -0.524704 -5.07582 26.5865
RightArm  8.51426 -5.70034 48.1061
RightForeArm  7.46656 19.2496 4.174
RightHand  -0.291396 3.03418 -4.23912
LeftUpLeg  2.0457 8.91915 2.33027
LeftLeg  14.5313 4.63936 0.676762
LeftFoot  -17.5197 -0.130664 -4.36355
LeftToes  -1.45701e-009 4.75788e-011 -4.21586e-011
688
root  -2.97262 39.1914 30.0643 -176.322 -64.9616 176.467
RightUpLeg  -25.0539 -6.45116 -5.90049
RightLeg  27.2991 4.18329 2.15515
RightFoot  2.3523 -1.21667 10.2331
RightToes  1.33877e-009 0 -3.6325e-017
Spine  11.9884 -2.7783 -3.39951
Spine1  6.70416 -2.65929 -2.57025
HEad  -16.7333 9.03008 -7.26388
LeftShoulder1  0.0392483 3.40489 -33.5443
LeftArm  -5.14666 6.84587 -36.1917
LeftForeArm  26.7698 2.70192 -7.84974
LeftHand  0.0134199 10.7988 1.5217
RightShoulder  -0.585479 -5.24007 26.9332
RightArm  9.28855 -7.11596 47.898
RightForeArm  8.53754 22.6425 4.42071
RightHand  -0.334823 3.20306 -4.76247
LeftUpLeg  1.91548 9.35385 2.77822
LeftLeg  14.2799 5.13186 0.359717
LeftFoot  -17.501 -0.147573 -4.69012
LeftToes  -1.45701e-009 4.75788e-011 -4.21586e-011
689
root  -2.69082 39.194 30.052 -175.784 -63.9676 175.906
RightUpLeg  -25.6701 -4.76155 -7.48666
RightLeg  33.7777 4.8794 3.27414
RightFoot  1.90446 -0.973062 8.48104
RightToes  1.33877e-009 0 -3.6325e-017
Spine  11.9093 -2.68267 -4.17933
Spine1  6.61646 -2.70117 -2.55666
HEad  -16.5522 9.03133 -6.7753
LeftShoulder1  0.0163595 3.4624 -33.4193
LeftArm  -3.13959 14.1588 -33.3123
LeftForeArm  32.8531 -0.0909085 -8.78442
LeftHand  -0.164503 11.2222 -2.01438
RightShoulder  -0.748811 -5.67394 27.8806
RightArm  10.0781 -8.01209 46.9166
RightForeArm  8.90528 24.8508 4.85009
RightHand  -0.337964 2.94627 -4.92931
LeftUpLeg  1.74778 9.3291 2.6546
LeftLeg  14.0657 5.89138 0.252475
LeftFoot  -17.4632 -0.171151 -5.15315
LeftToes  -1.45701e-009 4.75788e-011 -4.21586e-011
690
root  -2.45852 39.2029 30.0125 -175.433 -63.1509 175.776
RightUpLeg  -25.5842 -4.46389 -8.80265
RightLeg  36.6738 5.77841 4.34123
RightFoot  1.03213 -0.889019 8.25289
RightToes  1.33877e-009 0 -3.6325e-017
Spine  11.9736 -2.39568 -4.3198
Spine1  5.97762 -2.51823 -2.3491
HEad  -15.635 8.30977 -7.224
LeftShoulder1  -0.1008 3.76143 -33.1382
LeftArm  -0.332732 20.2746 -30.9009
LeftForeArm  38.132 -2.11795 -10.0625
LeftHand  -0.218612 10.9585 -3.19561
RightShoulder  -0.809457 -5.84483 27.9657
RightArm  10.5429 -9.10824 46.3095
RightForeArm  8.27027 25.3133 4.98924
RightHand  -0.352327 3.48074 -4.86763
LeftUpLeg  1.34427 9.4246 2.72993
LeftLeg  13.9858 6.53094 0.150216
LeftFoot  -17.4111 -0.190354 -5.55519
LeftToes  -1.45701e-009 4.75788e-011 -4.21586e-011
691
root  -2.2768 39.2483 29.9505 -175.185 -62.3354 176.101
RightUpLeg  -24.9441 -4.93503 -9.74905
RightLeg  35.5568 5.37512 3.88266
RightFoot  0.27443 -0.797665 7.84763
RightToes  1.33877e-009 0 -3.6325e-017
Spine  11.5933 -2.11772 -3.51133
Spine1  5.57172 -2.10099 -2.52984
HEad  -15.2779 8.34651 -6.80991
LeftShoulder1  -0.24608 4.13475 -32.8162
LeftArm  1.02163 25.0778 -29.2472
LeftForeArm  39.8038 -3.07949 -10.4063
LeftHand  -0.208156 10.1031 -3.57923
RightShoulder  -0.788086 -5.78061 27.9742
RightArm  11.3705 -9.55997 45.8263
RightForeArm  6.59537 23.846 4.75341
RightHand  -0.368588 4.34291 -4.67374
LeftUpLeg  0.892003 9.50729 2.96593
LeftLeg  13.4677 7.23313 0.0347514
LeftFoot  -16.9771 -0.186993 -5.86302
LeftToes  -1.45701e-009 4.75788e-011 -4.21586e-011
